<?xml version="1.0" encoding="utf-8"?>
<!-- Generator: Adobe Illustrator 19.0.0, SVG Export Plug-In . SVG Version: 6.00 Build 0)  -->
<svg version="1.1" id="layer" xmlns="http://www.w3.org/2000/svg" xmlns:xlink="http://www.w3.org/1999/xlink" x="0px" y="0px"
	 viewBox="-153 -46 652 652" style="enable-background:new -153 -46 652 652;" xml:space="preserve">
<style type="text/css">
	.st0{fill:#E9741F;}
</style>
<rect x="-131" y="328" class="st0" width="600" height="4.6"/>
<path d="M93.2,290.6c-1.1,0.1-1.4-2.1,0.3-2c6.1-0.1,6.5-3,6.6-9.9v-42.4c-0.1-5.1-1.9-7.1-6.3-7c-2.2-0.2-1.6-3.1,0-3
	c6.3,0.4,11.1,0.5,16.6,0.3c5.3,0.1,15.4,0,26.5-0.3c0.1,0.7,0.1,2.6,0,3.3c0.1,3.9,0.4,5.4,0.3,10.3c-0.1,1-2.2,1.5-2.3,0
	c-0.1-9.2-5.8-10.3-19.9-10.3h-7.3v25.8c2.2,0.1,5.9,0.2,7.6,0.3c9.2-0.1,13.2-1.4,12.9-6.6c0.1-1.1,2.3-2.1,2.6,0.3
	c-0.1,3.4,0,4.7,0,6.6c0,2.4-0.1,3.9,0,7.3c0,1.3-2.3,2.1-2.6,0c-0.5-4.9-3-5-10.9-5c-0.6-0.1-5.1-0.1-9.6,0v20.9
	c0,7.7,0.9,8.5,10.6,8.6c12.7-0.1,19.7-1.2,21.9-12.3c0-2.7,2.1-1,2,0c-0.5,5.1-1.4,9.1-1.7,13.6c-0.3,2-1.1,0.9-1.3,1.3
	c-11.7,0-21-0.2-26.5-0.3C106.4,290.3,100.5,290.4,93.2,290.6 M177.2,228.1c-3-1.3-6.6-2-10.8-2.1c-4.3,0.2-9.1,0.8-14.6,0.7
	c-2.1,0.1-4.3,0-8.9-0.3c-0.9,0.2-1.6,2.8,0.3,3c4.6-0.1,6.3,1,6.3,6.3v44.7c0,6.8-0.3,7.3-5.6,7.9c-2.3,0.3-2.3,2.4,0,2.3
	c4.7,0,6.6-0.1,9.6,0c2.7-0.1,5.6-0.2,10.3,0c1.5,0,2.6-2.1,0-2.3c-6.2-0.3-6.5-2.8-6.6-9.9v-17.9c4.3,0.2,8.9,0.3,9.6,0.7
	c1.2,0.5,2.2,3.2,4,6.3l8.3,13.6c4.6,7.7,9.9,10.5,17.9,10.6c1.7-0.1,1-0.2,3-0.3c1.7-0.1,1.1-2.2,0-2c-7-0.1-10.4-4.7-14.6-12.6
	l-10.9-17.6c5.9-1.9,12.5-7.1,12.6-15.9C186.8,236.2,183.5,230.8,177.2,228.1l-2.4,4.4c3.3,2.6,4.9,6.7,4.9,12.1
	c0.1,8.7-5,13.3-14.6,13.2c-2.2,0.1-5.6-0.2-7.9-0.7v-27.5c2.6-0.2,6-0.3,7.3-0.3c4.4,0,7.9,1.1,10.4,3.1L177.2,228.1z M245.8,238.9
	c0-2.7-0.1-1.9,0-3c-0.1-2.1,0.4-5.2,0.3-7.3c-7.2-1.7-14.7-3.5-24.8-3.6c-20,0.1-33.8,15.1-33.8,34.4
	c-0.1,19.1,15.3,31.3,33.4,31.1c10.5,0.2,22.1-4.7,27.8-11.3V272c-7.1,9.8-15.9,15.8-26.2,15.9c-15.6-0.1-27.6-13.9-27.5-31.5
	c-0.1-17.1,11.7-28.5,26.2-28.5c11.5,0,16.9,3.1,22.8,10.9C245.1,240.5,245.9,238.8,245.8,238.9 M-19.4,314.7c6.2,0,10,0,13.2,0
	c2.5,0,6.1,0,13.6,0.3c3,0,1.6-3.1,0-3c-6.2-0.1-9.8-4.4-9.9-12.9l0.3-63.9l39.4,79.8c0.4,0.8,1.4,0.7,1.3,0.7h1
	c0.8,0,1.2-1.2,1.3-1.3L77.6,226l1,75.2c0,8.2-2.5,11.1-9.6,11.3c-2.1,0-1.9,2.6,0,2.6c7.6-0.3,10-0.4,13.9-0.3
	c3.9-0.1,10.7,0,18.2,0.3c2.4,0,3.2-3.1,0-3.3c-8.1,0.3-10.6-6.2-10.6-17.6l-1.3-56.3c0.1-1,0.1-1.8,0-2.6
	c0.1-10.3,1.9-13.4,11.9-15.2c1.5,0.7,2-1.9,0-2c-4.5,0.2-8.8,0.4-12.9,0.3c-3.3,0-6.6-0.3-10.9-0.3c-1.2,0.1-1.5,1.3-1.7,1.3
	l-34.1,80.5L2.1,219c0,0.1-0.2-1.1-1.7-1c-5.4,0.3-7.5,0.4-8.6,0.3c-3.9,0-6.8-0.1-11.3-0.3c-2.1,0.1-2.7,3.2,0,3.3
	c9.6,0.2,11.1,3.8,11.3,13.9c-0.1,0.3,0,20.9,0,35.8c-0.3,15.5-0.4,27.7-1.3,32.1c-1.3,6.4-3.4,9-9.9,8.9
	C-20.9,311.9-21.5,315-19.4,314.7 M110.7,300.2v7.6c0.1,4.8,2.9,7.5,7,7.6c2.6-0.1,4.7-1.2,6-3c1.3-1.9,1.3-4.2,1.3-7v-4.6
	c0-1.9,0.1-2.6,1.7-2.6v-1c-1,0.2-1.9,0.2-2.7,0.3c-0.5-0.1-1.3-0.1-2.3-0.3v1c2.1-0.1,2.1,1.4,2,6v3.3c0.1,4.4-2.2,6.8-5.6,6.6
	c-3,0.2-5-1.8-5-5.3v-7.6c0-2.3,0.1-3.1,2-3v-1c-1.3,0.2-2.3,0.2-3,0.3c-0.9-0.1-2-0.1-3.3-0.3v1c0.2-0.1,0.3-0.1,0.3,0
	C110.4,298.1,110.9,298.6,110.7,300.2 M142.2,300.2l11.9,14.9h1c0-8.9,0.1-13.8,0.3-14.9c0-1.4,0.4-2,2-2v-1
	c-1.2,0.2-2.1,0.2-2.7,0.3c-1-0.1-1.8-0.1-2.6-0.3v1c1,0,1.4,0.3,1.7,1.3c0.2,0.5,0.3,3.5,0.3,8.6c0,1,0,2.1,0,3.3l-11.6-14.2
	c-0.7,0.2-1.3,0.2-1.7,0.3c-0.6-0.1-1.3-0.1-2.3-0.3v1c2-0.1,2.5,0.2,2.6,1.7c-0.1,7.8-0.3,11.8-0.3,11.9c-0.2,1.7-0.6,2.3-2,2.3
	v0.7c1.1,0.1,2,0,2.6,0c0.6,0,1.5,0.1,2.6,0v-0.7c-1.2,0-1.7-0.3-2-1.3c-0.1-0.6-0.2-3.5-0.3-8.6C142,302.8,142,301.5,142.2,300.2
	 M168,314.7c1.3,0.1,2.3,0,3,0c0.8,0,1.8,0.1,3.3,0v-0.7c-0.2,0-0.3,0-0.3,0c-1.7,0-1.8-0.7-1.7-2.6v-10.3c-0.1-2.3,0-3.1,2-3v-1
	c-1.4,0.2-2.4,0.2-3.3,0.3c-0.7-0.1-1.8-0.1-3-0.3v1c0-0.1,0.1-0.1,0.3,0c1.2-0.1,1.6,0.4,1.7,2v11.3c0,2-0.5,2.7-2,2.6c0,0,0,0,0,0
	V314.7z M192.8,315.4h0.7l6.6-14.9c0.6-1.6,0.9-2.4,2.7-2.3v-1c-0.9,0.2-1.8,0.2-2.7,0.3c-0.7-0.1-1.6-0.1-2.7-0.3v1
	c1,0,1.5,0.2,1.3,0.7c0.1,0.4,0,0.8,0,1.3l-5,11.9l-5-12.3c-0.2-0.3-0.2-0.5-0.3-0.7c0.1-0.8,0.7-1.1,2-1v-1
	c-1.2,0.2-2.3,0.2-3.3,0.3c-0.8-0.1-1.9-0.1-3.3-0.3v1c1.7,0,2.3,0.8,3,2.3L192.8,315.4z M213.7,314.7c2,0,3.9,0,5.6,0
	c1.5,0,3.8,0,7,0c0.1-1.3,0.4-2.7,0.7-4.3h-0.7c-0.7,3.1-2,3.4-5.6,3.3c-2.4,0-2.7-0.2-2.7-2.3v-5.3c1.2-0.1,1.9-0.1,2,0
	c2.3-0.1,3.1,0.1,3,1.7h0.7c0.1-0.9,0.1-1.7,0-2.3c0.1-0.6,0.1-1.3,0-2.3H223c0.1,0.2,0.1,0.3,0,0.3c0.1,1.5-0.9,1.7-3.3,1.7
	c-0.6,0.1-1.1,0-1.7,0v-6.6h1.3c3.9-0.1,5.5,0.1,5.6,3h0.7c-0.1-1.4-0.2-2.6-0.3-3.6c0.1-0.2,0.1-0.4,0-0.7
	c-2.9,0.2-5.1,0.2-6.6,0.3c-1.5-0.1-3.1-0.1-5-0.3v1c0.2-0.1,0.3-0.1,0.3,0c1.3-0.1,1.8,0.4,1.7,2v11.3c0.2,2-0.3,2.7-2,2.6
	c0.1,0,0.1,0,0,0V314.7z M247.2,297.8c-0.8-0.4-1.9-0.6-3.1-0.6c-1.1,0.1-2.4,0.2-4,0.3c-0.5-0.1-1.4-0.1-2.6-0.3v1
	c0.2-0.1,0.3-0.1,0.3,0c1.3-0.1,1.8,0.4,1.7,2v11.3c0.1,2-0.3,2.7-2,2.6c0.1,0,0.1,0,0,0v0.7c1.4,0.1,2.4,0.1,3.3,0
	c0.6,0.1,1.7,0.1,3,0v-0.7c-0.1,0-0.2,0-0.3,0c-1.5,0-1.7-0.7-1.7-2.6v-4.6c1.1,0.1,1.8,0.1,2,0.3c0.3,0,0.6,0.5,1,1.3l2.3,3.6
	c1.2,2.2,2.2,3,4.3,3c0.6,0,1,0,1.7,0v-0.7c-2.4,0-3.1-1.2-4.3-3.3l-2.6-5c2.5-0.4,3.7-1.8,3.6-4.3C249.8,300,249,298.5,247.2,297.8
	l-1,1.2c0.8,0.7,1.2,1.8,1.2,3.1c0.1,2.5-1.3,3.7-4,3.6c-0.6,0.1-1.1,0-1.7,0v-7.6c0.6,0,1.2-0.1,1.7,0c1.2,0,2.1,0.3,2.8,0.8
	L247.2,297.8z M261.7,314.7c1.4,0.3,2.9,0.5,4.3,0.7c3.9-0.1,6.1-2.2,6-5.6c0.1-1.7-0.7-2.9-2.3-4c-1.4-0.8-3.2-1.4-4.6-2.3
	c-1-0.6-1.5-1.6-1.3-2.6c-0.1-1.5,1.2-2.9,3-3c2.6,0.1,3.9,1.4,4,4h1c-0.2-0.9-0.2-1.4,0-1.7c-0.2-0.7-0.2-1.5,0-2.6
	c-1.5-0.1-2.9-0.5-4.6-0.7c-3.2,0.1-5.4,2.3-5.3,5c-0.1,2.5,1.7,3.6,4.6,5c2.5,1.1,4,1.9,4,4c0,2.1-1.5,3.5-3.6,3.6
	c-2.3-0.1-4-1.6-4.3-4h-0.7v1.7V314.7 M282.6,314.7c1.4,0.1,2.5,0,3.3,0c0.6,0,1.6,0.1,3,0v-0.7c0,0-0.1,0-0.3,0
	c-1.5,0-1.7-0.7-1.7-2.6v-10.3c0-2.3,0.2-3.1,2-3v-1c-1.2,0.2-2.3,0.2-3,0.3c-0.9-0.1-2-0.1-3.3-0.3v1c0.2-0.1,0.3-0.1,0.3,0
	c1.3-0.1,1.8,0.4,1.7,2v11.3c0.1,2-0.3,2.7-1.7,2.6c-0.2,0-0.2,0-0.3,0V314.7z M305.1,298.2v13.2c-0.1,2.1-0.5,2.7-2.3,2.6v0.7
	c1.5,0.1,2.6,0,3.3,0c0.7,0,1.7,0.1,3.3,0v-0.7c-2.2,0-2.3-0.6-2.3-2.6v-13.2h1.7c3.1,0.1,4.2,0.4,4.3,3.6h0.7c-0.1-1-0.1-1.6,0-2
	c-0.1-0.3-0.1-1.2,0-2.6h-15.2c0,1.2,0,1.8,0,2c0,0.9,0,1.7,0,2.6h0.7c0.2-2.9,1.2-3.5,4.3-3.6H305.1z M328.3,314.7
	c1.2,0.1,2.2,0,3,0c0.8,0,1.8,0.1,3,0v-0.7c0.1,0,0,0,0,0c-1.8,0-1.9-0.7-2-2.6v-3.6l4.6-8.3c0.5-1,0.9-1.4,2.3-1.7v-0.7
	c-1,0.2-1.7,0.2-2.3,0.3c-0.7-0.1-1.6-0.1-2.7-0.3v0.7c1.2,0.2,1.6,0.3,1.7,1c0,0.1-0.1,0.3-0.3,0.7l-3.6,7.3l-4-7.3
	c-0.2-0.2-0.3-0.4-0.3-0.7c0-0.5,0.5-0.8,1.3-1v-0.7c-1.1,0.2-2.1,0.2-3,0.3c-0.8-0.1-1.8-0.1-3-0.3v0.7c1.1,0.2,1.8,0.6,2.3,1.7
	l5,8.9v3c-0.1,2-0.5,2.7-2,2.6c-0.1,0-0.1,0,0,0V314.7z M248.8,290.6c7.3-0.1,13.1-0.2,19.5-0.3c5.4,0.1,14.7,0.3,26.5,0.3
	c0.1-0.4,1,0.7,1.3-1.3c0.2-4.5,1.1-8.4,1.3-13.6c0.4-1-1.7-2.7-1.7,0c-2.2,11.1-9.2,12.2-22.2,12.3c-9.4-0.1-10.4-0.9-10.3-8.6
	v-20.9c4.5-0.1,8.9-0.1,9.6,0c7.9-0.1,10.4,0,10.9,5c0.3,2.1,2.6,1.3,2.6,0c-0.2-3.4-0.1-4.8,0-7.3c-0.1-1.9-0.2-3.2,0-6.6
	c-0.4-2.4-2.7-1.4-2.6-0.3c0.2,5.2-3.8,6.5-12.9,6.6c-1.8-0.1-5.5-0.2-7.6-0.3v-25.8h7.3c14,0,19.7,1.1,19.9,10.3
	c0.1,1.5,2.2,1,2.3,0c0-4.9-0.3-6.3-0.3-10.3c0-0.7,0-2.7,0-3.3c-11.2,0.4-21.2,0.5-26.5,0.3c-5.6,0.1-10.3,0-16.9-0.3
	c-1.3-0.1-2,2.8,0,3c4.7-0.1,6.4,1.9,6.3,7v42.4c0.1,7-0.3,9.8-6.3,9.9C247.3,288.5,247.7,290.7,248.8,290.6 M331.1,227.4
	c-2.6-0.9-5.6-1.4-9.1-1.4c-4.4,0.2-9.2,0.8-14.9,0.7c-1.9,0.1-4.1,0-8.6-0.3c-1,0.2-1.7,2.8,0.3,3c4.5-0.1,6.2,1,6.3,6.3v44.7
	c-0.1,6.8-0.3,7.3-6,7.9c-2,0.3-2,2.4,0.3,2.3c4.7,0,6.6-0.1,9.3,0c2.9-0.1,5.9-0.2,10.6,0c1.5,0,2.5-2.1,0-2.3
	c-6.3-0.3-6.6-2.8-6.6-9.9v-17.9c4.3,0.2,8.8,0.3,9.6,0.7c1.1,0.5,2.1,3.2,4,6.3l8.3,13.6c4.5,7.7,9.9,10.5,17.9,10.6
	c1.6-0.1,0.9-0.2,3-0.3c1.6-0.1,1.1-2.2,0-2c-7-0.1-10.5-4.7-14.9-12.6l-10.6-17.6c5.9-1.9,12.4-7.1,12.6-15.9
	C342.4,235.6,338.4,229.9,331.1,227.4l-1.9,4.2c4,2.5,6.1,6.9,6,12.9c0.1,8.7-5,13.3-14.6,13.2c-2.2,0.1-5.7-0.2-7.9-0.7v-27.5
	c2.5-0.2,5.9-0.3,7.3-0.3c3.7,0,6.8,0.8,9.2,2.3L331.1,227.4z"/>
</svg>
